<?xml version="1.0" standalone="no"?>
<!DOCTYPE svg PUBLIC "-//W3C//DTD SVG 20010904//EN" "http://www.w3.org/TR/2001/REC-SVG-20010904/DTD/svg10.dtd">
<svg version="1.0" xmlns="http://www.w3.org/2000/svg" width="874.000000pt" height="518.000000pt"
     viewBox="0 0 874.000000 518.000000" preserveAspectRatio="xMidYMid meet">

    <g transform="translate(45.000000,518.000000) scale(0.100000,-0.100000)" fill="white">
        <path d="M1820 3483 c-58 -12 -115 -25 -127 -28 l-23 -5 0 -415 0 -414 128 61 c70 34 130 67 134 72 10 14 10 744 1 749 -5 2 -55 -7 -113 -20z"/>
        <path d="M2810 3484 c-58 -14 -115 -27 -127 -29 l-23 -5 0 -1015 0 -1014 30 -16 c26 -13 228 -15 1829 -13 1713 3 1801 4 1818 21 17 16 18 48 21 389 1 204 -1 374 -5 378 -7 6 -92 -10 -240 -45 l-23 -5 0 -235 0 -235 -130 0 -130 0 0 258 c0 142 -3 261 -6 264 -3 3 -20 2 -37 -2 -18 -5 -76 -18 -129 -30 l-98 -22 0 -234 0 -234 -130 0 -130 0 0 266 c0 248 -1 265 -17 260 -18 -6 -243 -56 -250 -56 -1 0 -3 -106 -3 -235 l0 -235 -260 0 -260 0 0 330 c0 182 -1 330 -3 330 -7 0 -195 -42 -229 -51 l-38 -10 0 -299 0 -300 -260 0 -260 0 0 253 c0 138 -4 257 -8 263 -6 10 -72 -1 -239 -41 l-23 -5 0 -235 0 -235 -260 0 -260 0 0 919 c0 506 -3 922 -7 924 -5 2 -55 -6 -113 -19z"/>
        <path d="M6690 3494 c-30 -6 -90 -20 -133 -29 l-78 -17 3 -957 c3 -912 4 -958 22 -991 45 -85 99 -114 211 -114 92 0 143 13 201 50 39 25 84 79 84 101 0 7 -16 6 -47 -4 -66 -20 -148 -13 -176 16 l-22 22 -5 968 -5 968 -55 -13z"/>
        <path d="M1283 3171 c-97 -45 -117 -172 -39 -250 35 -34 40 -36 104 -36 74 0 106 16 137 69 24 39 23 115 -1 157 -21 37 -92 79 -134 79 -14 0 -44 -9 -67 -19z"/>
        <path d="M3345 2806 c-91 -39 -122 -156 -64 -238 56 -78 193 -77 249 2 90 127 -44 298 -185 236z"/>
        <path d="M3914 2809 c-41 -12 -91 -69 -99 -112 -13 -69 31 -155 93 -178 40 -15 105 -10 140 11 102 63 96 222 -12 271 -45 20 -74 22 -122 8z"/>
        <path d="M4354 2800 c-104 -53 -112 -202 -14 -268 29 -20 45 -23 91 -20 97 7 157 74 146 166 -12 110 -125 172 -223 122z"/>
        <path d="M1305 2733 c-102 -26 -143 -172 -71 -251 70 -78 184 -68 250 21 15 20 20 42 20 82 -2 107 -93 174 -199 148z"/>
        <path d="M1797 2638 l-127 -62 0 -168 0 -168 30 0 c56 0 143 41 193 90 l47 47 0 162 c0 88 -4 161 -8 161 -5 0 -66 -28 -135 -62z"/>
        <path d="M1894 2267 c-52 -52 -109 -68 -284 -77 -99 -5 -171 -14 -200 -24 -111 -41 -182 -106 -234 -215 -28 -60 -31 -75 -31 -162 0 -90 2 -99 38 -171 61 -124 159 -198 292 -221 218 -37 419 111 455 333 11 74 14 570 3 570 -5 0 -22 -15 -39 -33z m-272 -384 c57 -55 61 -126 9 -182 -73 -78 -204 -34 -217 75 -14 113 126 186 208 107z"/>
        <path d="M2505 2184 c-5 -1 -63 -15 -127 -29 l-117 -27 -3 -496 -3 -497 -24 -48 c-25 -51 -73 -90 -132 -108 -49 -14 -173 -12 -254 5 -39 8 -71 13 -73 11 -2 -2 13 -19 32 -38 78 -79 184 -117 321 -117 142 0 251 48 326 142 73 93 73 90 77 672 2 285 -1 522 -5 526 -4 4 -12 6 -18 4z"/>
    </g>
</svg>
