<?xml version="1.0" encoding="UTF-8" standalone="no"?>
<svg width="86.7833mm" height="28.3104mm"
 xmlns="http://www.w3.org/2000/svg" version="1.2" baseProfile="tiny">
<defs>
</defs>
<g fill="none" stroke="black" stroke-width="1" fill-rule="evenodd" stroke-linecap="square" stroke-linejoin="bevel" >

<g fill="#000000" fill-opacity="1" stroke="#000000" stroke-opacity="1" stroke-width="1" stroke-linecap="square" stroke-linejoin="miter" stroke-miterlimit="2" transform="matrix(1,0,0,1,0,0)"
>
</g>

<g fill="#000000" fill-opacity="1" stroke="#000000" stroke-opacity="1" stroke-width="1" stroke-linecap="square" stroke-linejoin="miter" stroke-miterlimit="2" transform="matrix(1,0,0,1,0,0)"
>
</g>

<g fill="#000000" fill-opacity="1" stroke="#000000" stroke-opacity="1" stroke-width="1" stroke-linecap="square" stroke-linejoin="miter" stroke-miterlimit="2" transform="matrix(1,0,0,1,0,0)"
>
</g>

<g fill="#000000" fill-opacity="1" stroke="#000000" stroke-opacity="1" stroke-width="1" stroke-linecap="square" stroke-linejoin="miter" stroke-miterlimit="2" transform="matrix(1,0,0,1,0,0)"
>
</g>

<g fill="#000000" fill-opacity="1" stroke="#000000" stroke-opacity="1" stroke-width="1" stroke-linecap="square" stroke-linejoin="miter" stroke-miterlimit="2" transform="matrix(0.745439,0,0,0.745439,48.7298,8)"
>
</g>

<g fill="#000000" fill-opacity="1" stroke="#000000" stroke-opacity="1" stroke-width="1" stroke-linecap="square" stroke-linejoin="miter" stroke-miterlimit="2" transform="matrix(0.888889,0,0,0.888889,41.5534,3.55556)"
>
</g>

<g fill="#ffffff" fill-opacity="1" stroke="none" transform="matrix(0.888889,0,0,0.888889,41.5534,3.55556)"
>
<path vector-effect="none" fill-rule="nonzero" d="M91.1,77.4 C88.1,59.8 67.3,50.6 60.6,48.5 C67.4,44.5 71.9,36.9 71.9,28.3 C71.9,15.4 62,5 49.8,5 C37.6,5 27.6,15.4 27.6,28.2 C27.6,37.1 32.4,44.9 39.5,48.8 C36.7,49.7 30.9,51.9 25,55.7 C16,61.6 10.5,68.9 9,77 L9,77.4 C7,86.6 8.3,92.9 12.3,94.6 C12.9,94.8 13.7,95 14.6,95 C18.9,95 26.1,92.7 29.4,91.5 C29.9,91.4 30.3,91.2 30.7,91 L31.8,90.6 L31.6,90.5 C33.6,89.2 34.8,86.9 34.8,84.5 L34.8,84.2 C34.8,80.2 31.6,77 27.6,77 L27.3,77 C26.8,77 26.2,77.1 25.7,77.2 L25.7,64.8 C28.5,64.9 40.9,65.5 49,70.7 L49.1,94.4 L50.2,94.4 L50.1,70.7 C58.3,65.5 70.7,64.9 73.5,64.8 L73.5,77.1 C73.2,77 72.6,77 72.1,77 L71.8,77 C67.8,77 64.6,80.2 64.6,84.2 L64.6,84.5 C64.6,87.9 67,90.8 70.3,91.5 C73.6,92.7 80.8,95 85.2,95 C86.1,95 86.9,94.9 87.5,94.6 C91.6,93 93,86.4 91.1,77.4 M28.7,28.2 C28.7,16 38.2,6.1 49.8,6.1 C61.4,6.1 70.9,16 70.9,28.2 C70.9,40.4 61.4,50.3 49.8,50.3 C38.1,50.4 28.7,40.4 28.7,28.2 M87,93.6 C83.8,94.9 73.6,91.5 70.5,90.4 L70.4,90.4 C67.6,89.8 65.6,87.3 65.6,84.4 L65.6,84.1 C65.6,80.7 68.3,78 71.7,78 L72,78 C72.7,78 73.3,78.1 74,78.3 L74.7,78.6 L74.7,63.6 L74.1,63.6 C73.5,63.6 59,63.7 49.6,69.7 C40.2,63.7 25.8,63.6 25.2,63.6 L24.6,63.6 L24.6,78.6 L25.3,78.3 C25.9,78.1 26.6,78 27.3,78 L27.6,78 C31,78 33.7,80.7 33.7,84.1 L33.7,84.4 C33.7,86.7 32.4,88.8 30.3,89.9 L30.2,89.9 C29.8,90.1 29.4,90.2 29,90.3 C26,91.4 15.8,94.7 12.6,93.4 C9.2,92 8.2,86.4 9.8,78.3 L9.9,77.5 C13.2,58 38.5,50.1 40.7,49.4 C43.4,50.6 46.4,51.3 49.5,51.3 C52.9,51.3 56.1,50.5 59,49.1 C63.8,50.3 86.7,59.3 89.8,77.5 L90,78.4 C91.6,86.3 90.5,92.2 87,93.6 "/>
</g>

<g fill="#000000" fill-opacity="1" stroke="#000000" stroke-opacity="1" stroke-width="1" stroke-linecap="square" stroke-linejoin="miter" stroke-miterlimit="2" transform="matrix(0.888889,0,0,0.888889,41.5534,3.55556)"
>
</g>

<g fill="#000000" fill-opacity="1" stroke="#000000" stroke-opacity="1" stroke-width="1" stroke-linecap="square" stroke-linejoin="miter" stroke-miterlimit="2" transform="matrix(0.745439,0,0,0.745439,48.7298,8)"
>
</g>

<g fill="#000000" fill-opacity="1" stroke="#000000" stroke-opacity="1" stroke-width="1" stroke-linecap="square" stroke-linejoin="miter" stroke-miterlimit="2" transform="matrix(0.827346,0,0,0.827346,134.542,27.1754)"
>
</g>

<g fill="#ffffff" fill-opacity="1" stroke="none" transform="matrix(0.827346,0,0,0.827346,134.542,27.1754)"
>
<path vector-effect="none" fill-rule="nonzero" d="M8.68,40 L4.4,40 L4.4,10.16 L8.68,10.16 L8.68,40 M33.76,21.2 L31,24.4 C29.5333,23.2 27.48,22.6 24.84,22.6 C23.8,22.6 22.84,22.8267 21.96,23.28 C21.08,23.7333 20.64,24.2533 20.64,24.84 C20.64,25.32 20.7333,25.68 20.92,25.92 C21.16,26.2667 21.5867,26.5067 22.2,26.64 C22.8933,26.8267 23.88,26.92 25.16,26.92 C27.9333,26.92 30.12,27.2267 31.72,27.84 C33.1333,28.3467 34.12,29.1067 34.68,30.12 C35.1333,30.9467 35.36,32 35.36,33.28 C35.36,35.68 34.36,37.52 32.36,38.8 C30.4667,40.0267 27.9733,40.64 24.88,40.64 C23.0933,40.64 21.3667,40.2467 19.7,39.46 C18.0333,38.6733 16.6267,37.6 15.48,36.24 L18.44,33.24 L18.8,33.64 C19.36,34.2267 19.8133,34.68 20.16,35 C20.7733,35.5067 21.4133,35.8933 22.08,36.16 C22.9067,36.48 23.84,36.64 24.88,36.64 C26.8,36.64 28.3467,36.3467 29.52,35.76 C30.6933,35.1733 31.28,34.3467 31.28,33.28 C31.28,32.3733 30.76,31.76 29.72,31.44 C28.7867,31.1467 27.1733,31 24.88,31 C22.2133,31 20.1733,30.5333 18.76,29.6 C17.1333,28.5867 16.32,27 16.32,24.84 C16.32,23.6133 16.72,22.52 17.52,21.56 C18.2667,20.6267 19.2933,19.9 20.6,19.38 C21.9067,18.86 23.3333,18.6 24.88,18.6 C26.5333,18.6 28.0133,18.7733 29.32,19.12 C30.8667,19.52 32.3467,20.2133 33.76,21.2 L33.76,21.2 M58.8,23.4 L51,23.4 L51,40 L46.88,40 L46.88,23.4 L39.36,23.4 L39.36,19.28 L58.8,19.28 L58.8,23.4 L58.8,23.4 M69.28,40 L65.2,40 L65.2,19.28 L69.28,19.28 L69.28,40 M76.28,19.28 L81.44,19.28 L93.96,33.68 L93.96,19.28 L98.08,19.28 L98.08,40 L93.96,40 L82.44,26.52 L82.44,40 L78.32,40 L78.32,22.36 L76.28,19.28 M119.6,33.12 L120.16,33.12 L116.12,25.44 L111.2,34.92 C112.107,34.44 113.133,34.0533 114.28,33.76 C115.933,33.3333 117.707,33.12 119.6,33.12 M114,21.4 L112.64,18.8 L117.08,18.8 L128.28,40 L123.76,40 L122.12,36.88 L119.64,36.88 C118.067,36.88 116.4,37.0667 114.64,37.44 C113.147,37.7333 111.787,38.1333 110.56,38.64 C109.44,39.0667 108.76,39.44 108.52,39.76 L108.4,40 L104.08,40 L114,21.4 M149.8,31.56 L151.08,33.72 C151.533,34.4667 152.107,34.9867 152.8,35.28 C153.28,35.4667 153.867,35.56 154.56,35.56 L156,35.56 L156,40 L154.2,40 C153.32,40 152.627,39.9467 152.12,39.84 C151.373,39.68 150.693,39.3867 150.08,38.96 C149.413,38.4533 148.773,37.7067 148.16,36.72 L144.96,31.52 L144.68,31.52 C143.16,31.52 142,31.6133 141.2,31.8 C140.56,31.9333 139.787,32.24 138.88,32.72 L138.88,40 L134.68,40 L134.68,19.28 L148.04,19.28 C149.293,19.28 150.413,19.5467 151.4,20.08 C152.387,20.6133 153.16,21.36 153.72,22.32 C154.28,23.28 154.56,24.3467 154.56,25.52 C154.56,27.0667 154.153,28.34 153.34,29.34 C152.527,30.34 151.347,31.08 149.8,31.56 L149.8,31.56 M144.68,27.4 L148.04,27.4 C148.707,27.4 149.26,27.2267 149.7,26.88 C150.14,26.5333 150.36,26.04 150.36,25.4 C150.36,24.5733 150.04,24.0133 149.4,23.72 C148.947,23.5067 148.253,23.4 147.32,23.4 L138.88,23.4 L138.88,28.6 C140.347,27.8 142.28,27.4 144.68,27.4 L144.68,27.4 M175.92,33.12 L176.48,33.12 L172.44,25.44 L167.52,34.92 C168.427,34.44 169.453,34.0533 170.6,33.76 C172.253,33.3333 174.027,33.12 175.92,33.12 L175.92,33.12 M170.32,21.4 L168.96,18.8 L173.4,18.8 L184.6,40 L180.08,40 L178.44,36.88 L175.96,36.88 C174.387,36.88 172.72,37.0667 170.96,37.44 C169.467,37.7333 168.107,38.1333 166.88,38.64 C165.76,39.0667 165.08,39.44 164.84,39.76 L164.72,40 L160.4,40 L170.32,21.4"/>
</g>

<g fill="#000000" fill-opacity="1" stroke="#000000" stroke-opacity="1" stroke-width="1" stroke-linecap="square" stroke-linejoin="miter" stroke-miterlimit="2" transform="matrix(0.827346,0,0,0.827346,134.542,27.1754)"
>
</g>

<g fill="#000000" fill-opacity="1" stroke="#000000" stroke-opacity="1" stroke-width="1" stroke-linecap="square" stroke-linejoin="miter" stroke-miterlimit="2" transform="matrix(0.745439,0,0,0.745439,48.7298,8)"
>
</g>

<g fill="#000000" fill-opacity="1" stroke="#000000" stroke-opacity="1" stroke-width="1" stroke-linecap="square" stroke-linejoin="miter" stroke-miterlimit="2" transform="matrix(0.745439,0,0,0.745439,48.7298,8)"
>
</g>

<g fill="#000000" fill-opacity="1" stroke="#000000" stroke-opacity="1" stroke-width="1" stroke-linecap="square" stroke-linejoin="miter" stroke-miterlimit="2" transform="matrix(1,0,0,1,0,0)"
>
</g>

<g fill="#000000" fill-opacity="1" stroke="#000000" stroke-opacity="1" stroke-width="1" stroke-linecap="square" stroke-linejoin="miter" stroke-miterlimit="2" transform="matrix(1,0,0,1,0,0)"
>
</g>

<g fill="#000000" fill-opacity="1" stroke="#000000" stroke-opacity="1" stroke-width="1" stroke-linecap="square" stroke-linejoin="miter" stroke-miterlimit="2" transform="matrix(1,0,0,1,0,0)"
>
</g>

<g fill="#000000" fill-opacity="1" stroke="#000000" stroke-opacity="1" stroke-width="1" stroke-linecap="square" stroke-linejoin="miter" stroke-miterlimit="2" transform="matrix(1,0,0,1,0,0)"
>
</g>

<g fill="#000000" fill-opacity="1" stroke="#000000" stroke-opacity="1" stroke-width="1" stroke-linecap="square" stroke-linejoin="miter" stroke-miterlimit="2" transform="matrix(0.745439,0,0,0.745439,48.7298,8)"
>
</g>

<g fill="#000000" fill-opacity="1" stroke="#000000" stroke-opacity="1" stroke-width="1" stroke-linecap="square" stroke-linejoin="miter" stroke-miterlimit="2" transform="matrix(0.745439,0,0,0.745439,48.7298,8)"
>
</g>

<g fill="#000000" fill-opacity="1" stroke="#000000" stroke-opacity="1" stroke-width="1" stroke-linecap="square" stroke-linejoin="miter" stroke-miterlimit="2" transform="matrix(0.745439,0,0,0.745439,48.7298,8)"
>
</g>

<g fill="#000000" fill-opacity="1" stroke="#000000" stroke-opacity="1" stroke-width="1" stroke-linecap="square" stroke-linejoin="miter" stroke-miterlimit="2" transform="matrix(0.745439,0,0,0.745439,48.7298,8)"
>
</g>

<g fill="#000000" fill-opacity="1" stroke="#000000" stroke-opacity="1" stroke-width="1" stroke-linecap="square" stroke-linejoin="miter" stroke-miterlimit="2" transform="matrix(1,0,0,1,0,0)"
>
</g>

<g fill="#000000" fill-opacity="1" stroke="#000000" stroke-opacity="1" stroke-width="1" stroke-linecap="square" stroke-linejoin="miter" stroke-miterlimit="2" transform="matrix(1,0,0,1,0,0)"
>
</g>

<g fill="#000000" fill-opacity="1" stroke="#000000" stroke-opacity="1" stroke-width="1" stroke-linecap="square" stroke-linejoin="miter" stroke-miterlimit="2" transform="matrix(1,0,0,1,0,0)"
>
</g>

<g fill="#000000" fill-opacity="1" stroke="#000000" stroke-opacity="1" stroke-width="1" stroke-linecap="square" stroke-linejoin="miter" stroke-miterlimit="2" transform="matrix(1,0,0,1,0,0)"
>
</g>

<g fill="#000000" fill-opacity="1" stroke="#000000" stroke-opacity="1" stroke-width="1" stroke-linecap="square" stroke-linejoin="miter" stroke-miterlimit="2" transform="matrix(1,0,0,1,0,0)"
>
</g>

<g fill="#000000" fill-opacity="1" stroke="#000000" stroke-opacity="1" stroke-width="1" stroke-linecap="square" stroke-linejoin="miter" stroke-miterlimit="2" transform="matrix(1,0,0,1,0,0)"
>
</g>
</g>
</svg>
