<?xml version="1.0" standalone="no"?>
<!DOCTYPE svg PUBLIC "-//W3C//DTD SVG 20010904//EN"
 "http://www.w3.org/TR/2001/REC-SVG-20010904/DTD/svg10.dtd">
<svg version="1.0" xmlns="http://www.w3.org/2000/svg"
 width="100.000000pt" height="100.000000pt" viewBox="0 0 100.000000 100.000000"
 preserveAspectRatio="xMidYMid meet">

<g transform="translate(0.000000,100.000000) scale(0.100000,-0.100000)"
fill="#fff" stroke="none">
<path d="M199 804 c0 -5 0 -112 1 -238 1 -202 -1 -230 -16 -247 -10 -11 -15
-22 -11 -25 3 -3 10 4 17 15 13 25 58 27 170 7 146 -27 137 -35 -35 -33 l-160
2 -3 219 c-2 182 0 223 13 242 18 28 20 43 3 26 -7 -7 -20 -12 -29 -12 -10 0
-25 -7 -33 -16 -24 -23 -24 -485 0 -508 13 -13 43 -16 172 -16 122 -1 161 -4
176 -15 25 -19 57 -19 82 0 15 11 54 14 176 15 129 0 159 3 172 16 24 23 24
485 0 508 -8 9 -23 16 -33 16 -9 0 -22 5 -29 12 -17 17 -15 2 3 -26 13 -19 15
-60 13 -242 l-3 -219 -162 -3 c-148 -2 -167 -1 -235 22 -40 13 -110 28 -155
32 l-83 7 0 228 0 229 33 0 c48 0 156 -19 209 -36 l48 -15 3 -177 2 -177 3
177 2 176 48 16 c53 17 161 36 210 36 l32 0 0 -229 0 -228 -77 -7 c-74 -7
-159 -24 -152 -30 2 -2 38 2 79 10 113 20 157 18 170 -7 7 -11 14 -18 17 -15
4 3 -1 14 -11 25 -15 17 -17 45 -16 252 l2 234 -87 -3 c-58 -1 -109 -10 -153
-25 l-67 -22 -65 22 c-69 23 -240 42 -241 27z m-47 -299 l-3 -235 148 0 c114
-1 152 -4 167 -15 25 -19 57 -19 82 0 15 11 53 14 167 15 l148 0 -3 235 c-3
205 -1 235 12 233 13 -3 15 -38 15 -248 l0 -245 -166 -3 c-133 -2 -169 -6
-179 -17 -16 -19 -54 -19 -70 0 -10 11 -46 15 -179 17 l-166 3 -3 235 c-1 129
0 240 2 247 3 7 11 13 18 13 10 0 12 -49 10 -235z m383 -245 c-3 -5 -17 -10
-30 -10 -13 0 -27 5 -30 10 -4 6 8 10 30 10 22 0 34 -4 30 -10z"/>
<path d="M295 739 c51 -10 92 -10 50 1 -16 4 -43 8 -60 8 -25 0 -24 -2 10 -9z"/>
<path d="M631 735 c-35 -8 -66 -17 -70 -21 -3 -3 10 -3 29 2 19 4 64 13 100
20 36 6 52 12 35 12 -16 0 -59 -6 -94 -13z"/>
<path d="M390 726 c0 -2 9 -6 20 -9 11 -3 18 -1 14 4 -5 9 -34 13 -34 5z"/>
<path d="M320 666 c133 -26 140 -27 93 -11 -23 7 -68 16 -100 19 l-58 5 65
-13z"/>
<path d="M718 673 c6 -2 18 -2 25 0 6 3 1 5 -13 5 -14 0 -19 -2 -12 -5z"/>
<path d="M658 663 c6 -2 18 -2 25 0 6 3 1 5 -13 5 -14 0 -19 -2 -12 -5z"/>
<path d="M575 650 c-13 -5 -14 -9 -5 -9 8 0 24 4 35 9 13 5 14 9 5 9 -8 0 -24
-4 -35 -9z"/>
<path d="M273 603 c9 -2 25 -2 35 0 9 3 1 5 -18 5 -19 0 -27 -2 -17 -5z"/>
<path d="M631 595 c-35 -8 -66 -17 -70 -21 -3 -3 10 -3 29 2 19 4 64 13 100
20 36 6 52 12 35 12 -16 0 -59 -6 -94 -13z"/>
<path d="M365 591 c11 -4 36 -11 55 -15 24 -4 29 -3 15 3 -11 4 -36 11 -55 15
-24 4 -29 3 -15 -3z"/>
<path d="M320 526 c133 -26 140 -27 93 -11 -23 7 -68 16 -100 19 l-58 5 65
-13z"/>
<path d="M660 530 c-27 -6 -29 -8 -10 -8 14 -1 43 3 65 7 33 7 35 9 10 9 -16
-1 -46 -4 -65 -8z"/>
<path d="M568 503 c7 -3 16 -2 19 1 4 3 -2 6 -13 5 -11 0 -14 -3 -6 -6z"/>
<path d="M295 459 c22 -4 51 -8 65 -7 16 0 11 3 -15 9 -22 4 -51 8 -65 7 -16
0 -11 -3 15 -9z"/>
<path d="M631 455 c-35 -8 -66 -17 -70 -21 -3 -3 10 -3 29 2 19 4 64 13 100
20 36 6 52 12 35 12 -16 0 -59 -6 -94 -13z"/>
<path d="M428 433 c7 -3 16 -2 19 1 4 3 -2 6 -13 5 -11 0 -14 -3 -6 -6z"/>
<path d="M320 386 c133 -26 140 -27 93 -11 -23 7 -68 16 -100 19 l-58 5 65
-13z"/>
<path d="M631 385 c-35 -8 -66 -17 -70 -21 -3 -3 10 -3 29 2 19 4 64 13 100
20 36 6 52 12 35 12 -16 0 -59 -6 -94 -13z"/>
<path d="M501 364 c0 -11 3 -14 6 -6 3 7 2 16 -1 19 -3 4 -6 -2 -5 -13z"/>
</g>
</svg>
